<?xml version="1.0" encoding="utf-8"?>
<!-- Generator: Adobe Illustrator 24.3.0, SVG Export Plug-In . SVG Version: 6.00 Build 0)  -->
<svg version="1.1" id="Capa_1" xmlns="http://www.w3.org/2000/svg" xmlns:xlink="http://www.w3.org/1999/xlink" x="0px" y="0px"
	 viewBox="0 0 227 117" style="enable-background:new 0 0 227 117;" xml:space="preserve">
<style type="text/css">
	.st0{fill:#1858A1;}
	.st1{fill:#1959A1;}
	.st2{fill:#1A80C3;}
	.st3{fill:#169CD8;}
	.st4{fill:#1A59A1;}
	.st5{fill:#20B6EA;}
	.st6{fill:#38BEEF;}
	.st7{fill:#35BDEF;}
	.st8{fill:#40BFEF;}
</style>
<g>
	<path class="st0" d="M50.84,107.71c-2.21-0.27-3.96-2.12-4.27-4.27c-0.06-0.22-0.03-0.45-0.03-0.68c0-31.63,0-63.26,0-94.89
		c0-0.23-0.03-0.46,0.03-0.68c0.3-2.26,2.25-4.11,4.47-4.27c0.72-0.05,1.44-0.01,2.15-0.09c0.19,0.14,0.43,0,0.63,0.1
		c1.16,0.33,2.2,0.85,3,1.82c0.85,1.04,1.22,2.22,1.22,3.53c0.01,8.28,0,16.56,0,24.84c0,23.05,0,46.11,0,69.16
		c0,2.77-1.66,4.84-4.35,5.43C52.74,107.76,51.79,107.76,50.84,107.71z"/>
	<path class="st1" d="M67.81,105.06c-0.34,1.36-1.17,2.26-2.53,2.65c-0.66,0.05-1.32,0.05-1.98,0c-1.53-0.18-2.62-1.69-2.62-3.29
		c0.03-33.27,0.03-66.55,0-99.82c0-2.79,2.06-3.87,4.44-3.46c1.5,0.26,2.36,1.22,2.7,2.68c0.05,0.23,0.03,0.46,0.03,0.68
		c0,33.29,0,66.58,0,99.87C67.84,104.6,67.86,104.83,67.81,105.06z"/>
	<path class="st2" d="M70.79,56c0-16.27,0-32.54,0.01-48.82c0-1.15,0.49-2.06,1.63-2.5c1.51-0.58,3.64-0.24,4.31,1.51
		c0.19,0.5,0.24,1.04,0.24,1.58c0,15.15,0,30.3,0,45.45c0,17.02,0,34.04,0,51.06c0,1.67-0.65,2.83-2.04,3.14
		c-1.83,0.41-3.39,0.21-4.08-1.94c-0.06-0.19-0.06-0.36-0.06-0.54C70.79,88.62,70.79,72.31,70.79,56C70.79,56,70.79,56,70.79,56z"/>
	<path class="st3" d="M84.25,106.18c-0.24,0.72-0.66,1.27-1.41,1.53c-0.49,0.05-0.99,0.06-1.48,0c-0.84-0.2-1.35-0.82-1.38-1.65
		c0-0.12,0-0.25,0-0.37c0-31.21,0-62.43,0-93.64c0-1.11,0.39-1.73,1.23-1.97c1.18-0.33,2.25-0.03,2.75,0.81
		c0.13,0.21,0.19,0.45,0.29,0.68c0.06,0.23,0.03,0.45,0.03,0.68c0,31.09,0,62.18,0,93.26C84.28,105.72,84.31,105.95,84.25,106.18z"
		/>
	<path class="st4" d="M44.01,68.07c-0.27,1.53-1.07,2.7-2.43,3.46c-0.39,0.22-0.81,0.41-1.26,0.44c-1.28,0.09-2.57,0.29-3.8-0.29
		c-1.77-0.84-2.62-2.27-2.62-4.19c-0.01-4.98,0-9.96,0-14.94c0-3.9,0.02-7.8-0.01-11.7c-0.02-2.05,1.4-3.92,3.26-4.31
		c1.71-0.36,3.4-0.39,4.93,0.66c1.11,0.76,1.66,1.85,1.93,3.12c0.06,0.16,0.04,0.33,0.04,0.49c0,8.92,0,17.85,0,26.77
		C44.04,67.74,44.06,67.91,44.01,68.07z"/>
	<path class="st0" d="M18.72,67.95c-0.34,2.47-2.4,4.22-4.94,4.15c-1.51-0.05-2.89-0.23-3.95-1.37c-0.75-0.81-1.23-1.77-1.23-2.91
		c0-9.11-0.02-18.22,0.02-27.33c0.01-1.78,1.32-3.56,3.29-3.97c1.62-0.34,3.25-0.37,4.73,0.57c1.22,0.78,1.86,1.94,2.09,3.35
		c0.05,0.16,0.03,0.33,0.03,0.49c0,8.84,0,17.68,0,26.52C18.75,67.62,18.77,67.78,18.72,67.95z"/>
	<path class="st4" d="M31.8,67.82c-0.32,2.16-1.51,3.57-3.63,4.17c-2.4,0.68-4.87-0.26-6.08-2.36c-0.31-0.54-0.44-1.17-0.44-1.8
		c-0.06-0.18-0.03-0.37-0.03-0.56c0-8.72,0-17.43,0-26.15c0-0.19-0.03-0.37,0.04-0.56c0.2-2.58,2.14-4.25,4.74-4.23
		c1.02,0.01,2.02,0.06,2.94,0.53c1.49,0.78,2.23,2.07,2.46,3.69c0.06,0.16,0.04,0.33,0.04,0.49c0,8.76,0,17.52,0,26.28
		C31.83,67.49,31.85,67.66,31.8,67.82z"/>
	<path class="st5" d="M88.09,107.71c-0.72-0.13-1-0.65-1.15-1.28c-0.07-0.22-0.04-0.45-0.04-0.68c0-30.05,0-60.1,0-90.15
		c0-0.23-0.03-0.46,0.03-0.68c0.1-0.77,0.5-1.27,1.29-1.41c0.32-0.05,0.65-0.05,0.98,0c0.63,0.17,1.03,0.57,1.28,1.16
		c0.07,0.22,0.04,0.45,0.04,0.68c0,30.17,0,60.35,0,90.52c0,0.23,0.03,0.46-0.03,0.68c-0.17,0.54-0.54,0.89-1.03,1.15
		C89,107.78,88.55,107.75,88.09,107.71z"/>
	<path class="st6" d="M93.8,21.72c0.83,0.35,0.99,0.6,0.99,1.57c0,9.73,0,19.46,0,29.19c0,17.86,0,35.73,0,53.59
		c0,0.66-0.04,1.29-0.74,1.63c-0.32,0.06-0.65,0.05-0.97,0.01c-0.55-0.16-0.75-0.54-0.75-1.11c0.01-27.86,0.01-55.72,0-83.58
		c0-0.65,0.16-1.14,0.87-1.29C93.4,21.66,93.6,21.68,93.8,21.72z"/>
	<path class="st6" d="M122.84,38.29c1.09,0.43,1.36,0.81,1.36,1.94c0,8.94,0,17.88,0,26.82c0,1.1-0.41,1.68-1.37,1.93
		c-0.28,0.05-0.57,0.05-0.85,0c-0.91-0.15-1.33-0.61-1.37-1.53c-0.01-0.21-0.01-0.41-0.01-0.62c0-8.79,0-17.59,0-26.38
		c0-0.17,0-0.33,0-0.5c0.03-1.03,0.37-1.44,1.38-1.66C122.26,38.23,122.55,38.23,122.84,38.29z"/>
	<path class="st6" d="M105.04,68.98c-0.8-0.2-1-0.45-1-1.3c0-9.35,0-18.7,0-28.06c0-0.81,0.31-1.23,0.91-1.3
		c1.07-0.12,1.59,0.19,1.78,1.07c0.04,0.18,0.03,0.37,0.03,0.56c0,9.12,0,18.25,0,27.37c0,0.75-0.15,1.41-0.99,1.65
		C105.52,69.03,105.28,69.03,105.04,68.98z"/>
	<path class="st6" d="M113.63,68.98c-0.78-0.2-1-0.45-1-1.24c0-9.37,0-18.75,0-28.12c0-0.82,0.3-1.23,0.91-1.3
		c1.07-0.12,1.59,0.19,1.78,1.07c0.04,0.18,0.03,0.37,0.03,0.56c0,9.12,0,18.25,0,27.37c0,0.75-0.15,1.41-0.99,1.65
		C114.12,69.03,113.88,69.03,113.63,68.98z"/>
	<path class="st6" d="M109.27,68.97c-0.73-0.18-0.98-0.49-0.99-1.26c-0.01-1.12,0-2.24,0-3.36c0-8.11,0-16.22,0-24.33
		c0-0.17,0-0.33,0-0.5c0.03-0.76,0.41-1.18,1.1-1.21c1.02-0.03,1.51,0.31,1.6,1.14c0.02,0.14,0,0.29,0,0.44c0,9.17,0,18.34,0,27.5
		c0,0.76-0.21,1.34-1,1.58C109.76,69.03,109.51,69.03,109.27,68.97z"/>
	<path class="st6" d="M100.92,68.97c-0.63-0.16-0.99-0.6-0.99-1.22c0-9.41,0-18.82,0-28.23c0-0.67,0.35-1.06,1.12-1.24
		c0.2-0.05,0.4-0.06,0.61,0.01c0.73,0.21,1.01,0.72,1.01,1.44c0,9.29,0,18.58,0,27.87c0,0.73-0.34,1.16-1.01,1.38
		C101.41,69.03,101.17,69.03,100.92,68.97z"/>
	<path class="st7" d="M117.74,68.97c-0.49-0.04-0.72-0.37-0.89-0.77c-0.08-0.16-0.05-0.33-0.05-0.49c0-9.36,0-18.72,0-28.08
		c0-0.14-0.01-0.29,0.03-0.43c0.1-0.58,0.49-0.83,1.04-0.91c0.2-0.05,0.4-0.06,0.61,0.01c0.59,0.17,0.94,0.54,1.03,1.15
		c0.06,0.16,0.03,0.33,0.03,0.49c0,9.13,0,18.26,0,27.39c0,0.17,0.02,0.33-0.03,0.49c-0.09,0.62-0.45,0.99-1.04,1.16
		C118.23,69.02,117.98,69.04,117.74,68.97z"/>
	<path class="st7" d="M98.83,68.07c-0.18,0.42-0.47,0.74-0.91,0.9c-0.24,0.07-0.49,0.05-0.73,0.01c-0.62-0.07-0.96-0.43-1.04-1.04
		c-0.05-0.16-0.03-0.33-0.03-0.5c0-9.21,0-18.42,0-27.63c0-0.17-0.02-0.33,0.03-0.5c0.09-0.6,0.42-0.96,1.04-1.03
		c0.2-0.05,0.4-0.05,0.61,0c0.51,0.12,0.81,0.46,1.03,0.91c0.06,0.18,0.03,0.37,0.03,0.56c0,9.25,0,18.51,0,27.76
		C98.86,67.7,98.88,67.88,98.83,68.07z"/>
</g>
<g>
	<path class="st8" d="M181.73,78.95c-0.42,1.82-0.86,3.64-1.27,5.46c-1.01,4.45-2.02,8.91-3.01,13.37
		c-0.07,0.32-0.17,0.41-0.48,0.41c-1.59-0.01-3.19-0.01-4.78,0c-0.27,0-0.36-0.07-0.42-0.37c-0.6-2.72-1.24-5.42-1.85-8.13
		c-0.83-3.7-1.63-7.4-2.45-11.11c0-0.01-0.03-0.02-0.1-0.07c0,0.25,0,0.47,0,0.68c0,6.1-0.01,12.2,0.01,18.3
		c0,0.59-0.16,0.74-0.73,0.72c-1.32-0.04-2.64-0.05-3.96,0c-0.6,0.02-0.61-0.25-0.61-0.71c0.01-8.4,0.01-16.81,0.01-25.21
		c0.17-0.12,0.37-0.06,0.55-0.06c2.32,0,4.64-0.01,6.97,0c0.23,0,0.52-0.12,0.65,0.21c0.09,1.08,0.43,2.11,0.67,3.16
		c1.2,5.26,2.42,10.51,3.63,15.76c0.03,0.11,0.07,0.19,0.19,0.22c1.19-5.13,2.38-10.26,3.57-15.39c0.3-1.3,0.6-2.6,0.89-3.9
		c0.1-0.1,0.23-0.08,0.36-0.08c2.45,0,4.89,0,7.34,0c0.12,0,0.25-0.03,0.35,0.09c0,8.36-0.01,16.71-0.01,25.07
		c0,0.81,0,0.81-0.8,0.81c-1.49,0-2.98,0-4.46,0c-0.13-0.21-0.06-0.45-0.06-0.68c0-5.95,0-11.9,0-17.85c0-0.25,0.03-0.5-0.03-0.75
		c-0.01-0.04,0.06-0.13-0.04-0.11C181.79,78.81,181.77,78.9,181.73,78.95z"/>
	<path class="st8" d="M123.2,79.83c0.02,0.32-0.18,0.36-0.45,0.36c-1.51-0.01-3.02-0.01-4.53,0c-0.28,0-0.51-0.04-0.54-0.37
		c-0.2-2.12-1.58-3.09-3.49-3.45c-1.63-0.3-3.26-0.25-4.76,0.59c-0.8,0.45-1.29,1.13-1.34,2.06c-0.07,1.14,0.38,1.88,1.45,2.31
		c1.99,0.79,4.11,1.13,6.18,1.64c1.62,0.4,3.26,0.75,4.77,1.5c2.29,1.15,3.28,3.1,3.49,5.55c0.07,0.33,0.06,0.66,0.01,0.99
		c-0.28,4.05-3.26,6.74-7.12,7.54c-0.73,0.15-1.47,0.29-2.22,0.29c-0.79,0.06-1.58,0.05-2.37,0.01c-1.75-0.07-3.45-0.36-5.04-1.11
		c-2.92-1.36-4.61-3.59-4.81-6.86c-0.01-0.04-0.02-0.08-0.03-0.12c-0.03-0.81-0.03-0.81,0.79-0.81c1.36,0,2.72,0,4.08,0
		c0.2,0,0.42-0.09,0.59,0.1c0.03,1.86,0.99,3.29,2.76,3.78c2.06,0.58,4.15,0.59,6.17-0.29c0.89-0.39,1.47-1.04,1.65-2.01
		c0.1-0.34,0.1-0.69,0-1.03c-0.18-0.88-0.84-1.29-1.57-1.64c-1.09-0.52-2.27-0.73-3.43-1c-2.41-0.57-4.87-0.97-7.14-2.02
		c-1.77-0.82-2.87-2.21-3.27-4.07c-0.41-1.87-0.35-3.77,0.5-5.55c1.13-2.38,3.08-3.72,5.6-4.31c0.96-0.22,1.93-0.33,2.9-0.41
		c0.58-0.06,1.16-0.05,1.74-0.01c1.86,0.16,3.65,0.56,5.29,1.5c2.36,1.36,3.7,3.4,4.06,6.09C123.2,79.32,123.06,79.6,123.2,79.83z"
		/>
	<path class="st8" d="M143.47,93.92c2.06-0.23,3.01-1.48,3.4-3.36c0.06-0.3,0.08-0.61,0.11-0.91c0.12-0.22,0.06-0.45,0.06-0.68
		c0-5.34,0-10.69,0-16.03c0-0.71,0-0.71,0.71-0.71c1.51,0,3.02,0.01,4.53-0.01c0.38,0,0.56,0.05,0.56,0.5
		c-0.02,5.55-0.01,11.11-0.01,16.66c0,0.08-0.01,0.17-0.03,0.25c-0.01,0.25-0.02,0.51-0.03,0.76c-0.14,0.19,0,0.43-0.1,0.63
		c-0.27,1.32-0.52,2.65-1.27,3.82c-1.32,2.07-3.24,3.23-5.6,3.72c-0.73,0.15-1.47,0.29-2.22,0.29c-0.79,0.06-1.58,0.06-2.37,0
		c-1.52-0.06-3.01-0.29-4.4-0.93c-1.92-0.88-3.35-2.26-4.09-4.28c-0.43-1.17-0.7-2.38-0.73-3.63c-0.11-0.42,0.05-0.85-0.09-1.26
		c0-5.48,0-10.96,0-16.43c0.05-0.03,0.09-0.08,0.16-0.08c1.84-0.01,3.67-0.01,5.51,0.01c0.04,0,0.07,0.04,0.11,0.06
		c0,5.33,0,10.65,0,15.98c0,0.25,0.01,0.5,0.02,0.75c0.12,0.28-0.05,0.6,0.1,0.88c0.01,2.28,1.5,3.98,3.51,4.02
		c0.2,0.13,0.43,0.01,0.63,0.09c0.3,0,0.6,0,0.9,0C143.05,93.92,143.28,94.05,143.47,93.92z"/>
	<path class="st8" d="M219.12,97.94c-2.51-7.09-5.04-14.18-7.53-21.28c-0.5-1.41-1.08-2.79-1.45-4.24
		c-0.08-0.19-0.24-0.21-0.41-0.21c-2,0.02-3.99-0.04-5.99,0.03c-0.22,0.22-0.21,0.53-0.31,0.8c-0.8,2.2-1.58,4.4-2.37,6.6
		c-0.52,1.45-1.03,2.89-1.54,4.34c-0.74,2.07-1.48,4.13-2.22,6.2c-0.56,1.54-1.13,3.07-1.68,4.62c-0.4,1.11-0.76,2.23-1.16,3.39
		c1.83,0,3.62-0.02,5.4,0.01c0.46,0.01,0.6-0.17,0.73-0.55c0.5-1.54,1.03-3.08,1.55-4.62c0.13-0.1,0.28-0.06,0.42-0.06
		c2.8,0,5.6,0,8.41,0c0.14,0,0.29-0.03,0.42,0.06c0.51,1.61,1.03,3.23,1.53,4.84c0.09,0.3,0.29,0.31,0.53,0.31c0.71,0,1.42,0,2.14,0
		c1.19,0,2.37,0,3.58,0C219.14,98.06,219.14,98,219.12,97.94z M209.31,88.25c-1.7-0.04-3.4-0.01-5.1-0.02
		c-0.22,0-0.57,0.11-0.41-0.36c1-2.99,1.99-5.99,3.03-9.14c0.46,1.43,0.88,2.72,1.3,4.01c0.53,1.63,1.04,3.27,1.58,4.9
		C209.86,88.07,209.88,88.26,209.31,88.25z"/>
	<g>
		<path class="st8" d="M104.09,100.46h2.46c0.5,0,0.94,0.06,1.31,0.17c0.38,0.11,0.7,0.26,0.98,0.45c0.28,0.19,0.51,0.41,0.69,0.65
			c0.18,0.25,0.33,0.5,0.43,0.76c0.11,0.26,0.18,0.52,0.23,0.78c0.05,0.26,0.07,0.5,0.07,0.72c0,0.45-0.08,0.89-0.25,1.31
			c-0.17,0.42-0.41,0.8-0.74,1.13c-0.33,0.33-0.73,0.59-1.21,0.79c-0.48,0.2-1.04,0.3-1.67,0.3h-2.31V100.46z M105.05,106.62h1.21
			c0.41,0,0.79-0.05,1.15-0.16c0.36-0.11,0.68-0.27,0.95-0.49c0.27-0.22,0.49-0.49,0.65-0.82c0.16-0.33,0.24-0.71,0.24-1.15
			c0-0.23-0.04-0.49-0.11-0.79c-0.07-0.3-0.21-0.59-0.41-0.86c-0.2-0.27-0.48-0.5-0.84-0.69c-0.36-0.19-0.82-0.28-1.4-0.28h-1.44
			V106.62z"/>
		<path class="st8" d="M114.47,101.1c0-0.18,0.06-0.33,0.19-0.46c0.13-0.13,0.28-0.19,0.46-0.19c0.18,0,0.33,0.06,0.46,0.19
			c0.13,0.13,0.19,0.28,0.19,0.46c0,0.18-0.06,0.33-0.19,0.46c-0.13,0.13-0.28,0.19-0.46,0.19c-0.18,0-0.33-0.06-0.46-0.19
			C114.53,101.43,114.47,101.28,114.47,101.1z M114.68,102.79h0.9v4.73h-0.9V102.79z"/>
		<path class="st8" d="M119.63,102.79h1.04l1.42,3.62l1.36-3.62h0.96l-1.86,4.73h-0.99L119.63,102.79z"/>
		<path class="st8" d="M128.24,101.1c0-0.18,0.06-0.33,0.19-0.46c0.13-0.13,0.28-0.19,0.46-0.19c0.18,0,0.33,0.06,0.46,0.19
			c0.13,0.13,0.19,0.28,0.19,0.46c0,0.18-0.06,0.33-0.19,0.46c-0.13,0.13-0.28,0.19-0.46,0.19c-0.18,0-0.33-0.06-0.46-0.19
			C128.3,101.43,128.24,101.28,128.24,101.1z M128.45,102.79h0.9v4.73h-0.9V102.79z"/>
		<path class="st8" d="M136.48,103.98c-0.11-0.13-0.24-0.24-0.39-0.33c-0.16-0.09-0.35-0.13-0.57-0.13c-0.21,0-0.4,0.04-0.55,0.13
			c-0.16,0.09-0.23,0.22-0.23,0.39c0,0.14,0.04,0.25,0.13,0.34c0.09,0.09,0.2,0.16,0.32,0.21c0.12,0.05,0.25,0.09,0.39,0.12
			c0.14,0.03,0.26,0.05,0.36,0.07c0.19,0.05,0.37,0.1,0.54,0.17c0.17,0.07,0.32,0.15,0.44,0.26c0.12,0.11,0.22,0.24,0.29,0.39
			c0.07,0.15,0.1,0.34,0.1,0.56c0,0.27-0.06,0.49-0.17,0.68c-0.11,0.19-0.26,0.34-0.44,0.46c-0.18,0.12-0.38,0.21-0.61,0.26
			c-0.23,0.05-0.46,0.08-0.69,0.08c-0.39,0-0.74-0.06-1.03-0.18c-0.3-0.12-0.56-0.34-0.79-0.66l0.68-0.56
			c0.15,0.15,0.31,0.28,0.49,0.39c0.18,0.11,0.4,0.17,0.66,0.17c0.11,0,0.23-0.01,0.34-0.03c0.12-0.02,0.22-0.06,0.31-0.11
			c0.09-0.05,0.16-0.11,0.22-0.19c0.06-0.08,0.08-0.16,0.08-0.26c0-0.13-0.04-0.24-0.12-0.33c-0.08-0.09-0.18-0.15-0.3-0.2
			c-0.12-0.05-0.24-0.09-0.37-0.12s-0.24-0.05-0.34-0.07c-0.19-0.05-0.38-0.1-0.55-0.16c-0.17-0.06-0.33-0.14-0.46-0.24
			c-0.13-0.1-0.24-0.23-0.32-0.38c-0.08-0.15-0.12-0.34-0.12-0.57c0-0.25,0.05-0.46,0.15-0.64c0.1-0.18,0.24-0.33,0.41-0.45
			c0.17-0.12,0.36-0.21,0.58-0.27c0.22-0.06,0.43-0.09,0.65-0.09c0.32,0,0.63,0.06,0.92,0.18c0.29,0.12,0.53,0.32,0.7,0.6
			L136.48,103.98z"/>
		<path class="st8" d="M141.45,101.1c0-0.18,0.06-0.33,0.19-0.46c0.13-0.13,0.28-0.19,0.46-0.19c0.18,0,0.33,0.06,0.46,0.19
			c0.13,0.13,0.19,0.28,0.19,0.46c0,0.18-0.06,0.33-0.19,0.46c-0.13,0.13-0.28,0.19-0.46,0.19c-0.18,0-0.33-0.06-0.46-0.19
			C141.52,101.43,141.45,101.28,141.45,101.1z M141.66,102.79h0.9v4.73h-0.9V102.79z"/>
		<path class="st8" d="M146.95,105.16c0-0.35,0.06-0.67,0.19-0.97c0.13-0.3,0.31-0.56,0.53-0.79c0.23-0.23,0.49-0.4,0.8-0.53
			c0.31-0.13,0.64-0.19,0.99-0.19c0.35,0,0.68,0.06,0.99,0.19c0.31,0.13,0.57,0.31,0.8,0.53c0.23,0.23,0.4,0.49,0.53,0.79
			c0.13,0.3,0.19,0.62,0.19,0.97c0,0.35-0.06,0.67-0.19,0.97c-0.13,0.3-0.31,0.57-0.53,0.79c-0.23,0.22-0.49,0.4-0.8,0.53
			c-0.31,0.13-0.64,0.19-0.99,0.19c-0.35,0-0.68-0.06-0.99-0.19c-0.31-0.13-0.57-0.31-0.8-0.53c-0.23-0.22-0.4-0.49-0.53-0.79
			C147.01,105.83,146.95,105.5,146.95,105.16z M147.91,105.16c0,0.24,0.04,0.46,0.11,0.66c0.07,0.2,0.18,0.38,0.31,0.52
			c0.13,0.14,0.3,0.26,0.49,0.34c0.19,0.08,0.41,0.12,0.65,0.12c0.24,0,0.46-0.04,0.65-0.12c0.19-0.08,0.36-0.2,0.49-0.34
			c0.13-0.14,0.24-0.32,0.31-0.52c0.07-0.2,0.11-0.42,0.11-0.66c0-0.24-0.04-0.46-0.11-0.66c-0.07-0.2-0.18-0.38-0.31-0.52
			c-0.13-0.14-0.3-0.26-0.49-0.34c-0.19-0.08-0.41-0.12-0.65-0.12c-0.24,0-0.46,0.04-0.65,0.12c-0.19,0.08-0.36,0.2-0.49,0.34
			c-0.13,0.14-0.24,0.32-0.31,0.52C147.94,104.7,147.91,104.92,147.91,105.16z M149.85,100.46h1.28l-1.49,1.44h-0.83L149.85,100.46z
			"/>
		<path class="st8" d="M156.3,102.79h0.9v0.73h0.02c0.11-0.25,0.31-0.46,0.59-0.61c0.28-0.16,0.6-0.23,0.97-0.23
			c0.23,0,0.44,0.03,0.65,0.1c0.21,0.07,0.39,0.18,0.55,0.32c0.16,0.15,0.28,0.33,0.37,0.56c0.09,0.23,0.14,0.5,0.14,0.81v3.04h-0.9
			v-2.79c0-0.22-0.03-0.41-0.09-0.56c-0.06-0.16-0.14-0.28-0.24-0.38c-0.1-0.1-0.21-0.17-0.34-0.21c-0.13-0.04-0.26-0.06-0.4-0.06
			c-0.19,0-0.36,0.03-0.52,0.09c-0.16,0.06-0.3,0.15-0.42,0.28c-0.12,0.13-0.21,0.29-0.28,0.49c-0.07,0.2-0.1,0.44-0.1,0.71v2.43
			h-0.9V102.79z"/>
		<path class="st8" d="M171.17,100.46h1.43l2.25,5.35h0.04l2.23-5.35h1.43v7.06h-0.96v-5.81h-0.02l-2.38,5.81h-0.64l-2.38-5.81
			h-0.02v5.81h-0.96V100.46z"/>
		<path class="st8" d="M183.92,105.49c0,0.21,0.04,0.39,0.13,0.56c0.09,0.17,0.21,0.31,0.35,0.43c0.15,0.12,0.32,0.21,0.51,0.28
			c0.19,0.07,0.39,0.1,0.6,0.1c0.28,0,0.52-0.06,0.73-0.19c0.21-0.13,0.4-0.3,0.57-0.51l0.68,0.52c-0.5,0.65-1.2,0.97-2.1,0.97
			c-0.37,0-0.71-0.06-1.01-0.19c-0.3-0.13-0.56-0.3-0.77-0.52c-0.21-0.22-0.37-0.49-0.48-0.79c-0.11-0.3-0.17-0.63-0.17-0.98
			c0-0.35,0.06-0.68,0.18-0.98c0.12-0.3,0.29-0.57,0.51-0.79c0.22-0.22,0.47-0.4,0.77-0.52c0.3-0.13,0.63-0.19,0.98-0.19
			c0.42,0,0.77,0.07,1.06,0.22c0.29,0.15,0.53,0.34,0.71,0.57c0.19,0.24,0.32,0.5,0.4,0.8c0.08,0.3,0.12,0.6,0.12,0.9v0.32H183.92z
			 M186.75,104.77c-0.01-0.2-0.04-0.38-0.09-0.55c-0.06-0.17-0.14-0.31-0.25-0.43c-0.11-0.12-0.25-0.22-0.42-0.29
			c-0.17-0.07-0.37-0.1-0.59-0.1c-0.22,0-0.42,0.04-0.6,0.12c-0.18,0.08-0.34,0.19-0.46,0.32c-0.13,0.13-0.22,0.28-0.29,0.44
			c-0.07,0.16-0.1,0.32-0.1,0.48H186.75z M185.72,100.46h1.28l-1.49,1.44h-0.83L185.72,100.46z"/>
		<path class="st8" d="M196.72,107.52h-0.9v-0.68h-0.02c-0.17,0.25-0.41,0.45-0.71,0.59c-0.3,0.14-0.61,0.21-0.93,0.21
			c-0.37,0-0.7-0.06-0.99-0.19c-0.3-0.13-0.55-0.3-0.76-0.53c-0.21-0.23-0.37-0.49-0.48-0.79c-0.11-0.3-0.17-0.63-0.17-0.98
			c0-0.35,0.06-0.68,0.17-0.98c0.11-0.3,0.27-0.57,0.48-0.79c0.21-0.22,0.46-0.4,0.76-0.52c0.3-0.13,0.63-0.19,0.99-0.19
			c0.34,0,0.66,0.07,0.96,0.21c0.3,0.14,0.53,0.34,0.69,0.58h0.02v-3.49h0.9V107.52z M194.27,106.8c0.24,0,0.46-0.04,0.65-0.12
			c0.19-0.08,0.36-0.2,0.49-0.34c0.13-0.14,0.24-0.32,0.31-0.52c0.07-0.2,0.11-0.42,0.11-0.66c0-0.24-0.04-0.46-0.11-0.66
			c-0.07-0.2-0.18-0.38-0.31-0.52c-0.13-0.14-0.3-0.26-0.49-0.34c-0.19-0.08-0.41-0.12-0.65-0.12c-0.24,0-0.46,0.04-0.65,0.12
			c-0.19,0.08-0.36,0.2-0.49,0.34c-0.13,0.14-0.24,0.32-0.31,0.52c-0.07,0.2-0.11,0.42-0.11,0.66c0,0.24,0.04,0.46,0.11,0.66
			c0.07,0.2,0.18,0.38,0.31,0.52c0.13,0.14,0.3,0.26,0.49,0.34C193.81,106.76,194.03,106.8,194.27,106.8z"/>
		<path class="st8" d="M201.13,101.1c0-0.18,0.06-0.33,0.19-0.46c0.13-0.13,0.28-0.19,0.46-0.19c0.18,0,0.33,0.06,0.46,0.19
			c0.13,0.13,0.19,0.28,0.19,0.46c0,0.18-0.06,0.33-0.19,0.46c-0.13,0.13-0.28,0.19-0.46,0.19c-0.18,0-0.33-0.06-0.46-0.19
			C201.2,101.43,201.13,101.28,201.13,101.1z M201.34,102.79h0.9v4.73h-0.9V102.79z"/>
		<path class="st8" d="M210.24,104.05c-0.17-0.17-0.34-0.3-0.52-0.39c-0.18-0.09-0.4-0.13-0.65-0.13c-0.25,0-0.46,0.04-0.64,0.13
			c-0.18,0.09-0.34,0.21-0.46,0.37c-0.12,0.16-0.22,0.34-0.28,0.54c-0.06,0.2-0.09,0.41-0.09,0.63c0,0.22,0.04,0.43,0.11,0.62
			c0.07,0.2,0.18,0.37,0.31,0.51c0.13,0.15,0.29,0.26,0.48,0.34c0.19,0.08,0.4,0.12,0.63,0.12c0.25,0,0.47-0.04,0.65-0.13
			c0.18-0.09,0.35-0.22,0.5-0.39l0.64,0.64c-0.23,0.26-0.5,0.45-0.81,0.56c-0.31,0.11-0.64,0.17-0.98,0.17c-0.37,0-0.7-0.06-1-0.18
			c-0.3-0.12-0.56-0.29-0.78-0.5c-0.22-0.22-0.39-0.48-0.51-0.78c-0.12-0.3-0.18-0.64-0.18-1c0-0.37,0.06-0.7,0.18-1.01
			c0.12-0.31,0.29-0.57,0.5-0.79c0.22-0.22,0.48-0.39,0.78-0.51c0.3-0.12,0.64-0.18,1.01-0.18c0.35,0,0.68,0.06,0.99,0.18
			c0.32,0.12,0.59,0.31,0.82,0.56L210.24,104.05z"/>
		<path class="st8" d="M214.88,103.37c0.25-0.23,0.55-0.41,0.88-0.52c0.33-0.12,0.67-0.17,1-0.17c0.35,0,0.64,0.04,0.89,0.13
			c0.25,0.09,0.45,0.2,0.61,0.35c0.16,0.15,0.28,0.31,0.35,0.5c0.08,0.19,0.11,0.39,0.11,0.59v2.41c0,0.17,0,0.32,0.01,0.46
			c0.01,0.14,0.02,0.27,0.03,0.4h-0.8c-0.02-0.24-0.03-0.48-0.03-0.72h-0.02c-0.2,0.31-0.44,0.52-0.71,0.65
			c-0.27,0.13-0.59,0.19-0.95,0.19c-0.22,0-0.43-0.03-0.63-0.09c-0.2-0.06-0.37-0.15-0.52-0.27c-0.15-0.12-0.27-0.27-0.35-0.44
			c-0.09-0.18-0.13-0.38-0.13-0.61c0-0.31,0.07-0.56,0.2-0.77c0.14-0.21,0.32-0.37,0.56-0.5c0.24-0.13,0.51-0.22,0.83-0.28
			c0.32-0.06,0.65-0.08,1.01-0.08h0.66v-0.2c0-0.12-0.02-0.24-0.07-0.36c-0.05-0.12-0.12-0.23-0.21-0.32
			c-0.09-0.1-0.21-0.17-0.35-0.23c-0.14-0.06-0.31-0.08-0.5-0.08c-0.17,0-0.32,0.02-0.45,0.05c-0.13,0.03-0.25,0.07-0.35,0.12
			c-0.11,0.05-0.2,0.11-0.29,0.17c-0.09,0.07-0.17,0.13-0.25,0.19L214.88,103.37z M217.42,105.25c-0.21,0-0.43,0.01-0.65,0.03
			c-0.22,0.02-0.43,0.07-0.61,0.13c-0.18,0.07-0.33,0.16-0.45,0.28c-0.12,0.12-0.17,0.27-0.17,0.46c0,0.27,0.09,0.47,0.27,0.59
			c0.18,0.12,0.43,0.18,0.74,0.18c0.25,0,0.46-0.04,0.63-0.12c0.17-0.08,0.31-0.19,0.42-0.32c0.11-0.13,0.18-0.28,0.23-0.44
			c0.05-0.16,0.07-0.32,0.07-0.48v-0.3H217.42z"/>
	</g>
</g>
</svg>
